<?xml version="1.0" encoding="UTF-8" standalone="no"?>
<!-- Created with Inkscape (http://www.inkscape.org/) -->

<svg
   xmlns:dc="http://purl.org/dc/elements/1.1/"
   xmlns:cc="http://creativecommons.org/ns#"
   xmlns:rdf="http://www.w3.org/1999/02/22-rdf-syntax-ns#"
   xmlns:svg="http://www.w3.org/2000/svg"
   xmlns="http://www.w3.org/2000/svg"
   xmlns:sodipodi="http://sodipodi.sourceforge.net/DTD/sodipodi-0.dtd"
   xmlns:inkscape="http://www.inkscape.org/namespaces/inkscape"
   width="100"
   height="100"
   viewBox="0 0 100 100"
   id="svg3684"
   version="1.1"
   inkscape:version="0.91 r13725"
   sodipodi:docname="git.svg">
  <defs
     id="defs3686" />
  <sodipodi:namedview
     id="base"
     pagecolor="#ffffff"
     bordercolor="#666666"
     borderopacity="1.0"
     inkscape:pageopacity="0.0"
     inkscape:pageshadow="2"
     inkscape:zoom="0.35"
     inkscape:cx="375"
     inkscape:cy="520"
     inkscape:document-units="px"
     inkscape:current-layer="layer1"
     showgrid="false"
     units="px"
     inkscape:window-width="1024"
     inkscape:window-height="715"
     inkscape:window-x="-8"
     inkscape:window-y="-8"
     inkscape:window-maximized="1" />
  <metadata
     id="metadata3689">
    <rdf:RDF>
      <cc:Work
         rdf:about="">
        <dc:format>image/svg+xml</dc:format>
        <dc:type
           rdf:resource="http://purl.org/dc/dcmitype/StillImage" />
        <dc:title></dc:title>
      </cc:Work>
    </rdf:RDF>
  </metadata>
  <g
     inkscape:label="Layer 1"
     inkscape:groupmode="layer"
     id="layer1"
     transform="translate(0,-952.3622)">
    <g
       id="g3801"
       transform="matrix(0.89129738,0,0,0.89129738,237.14286,320.93363)">
      <g
         id="g3758">
        <g
           id="g3760">
          <circle
             r="56.098"
             cy="56.098"
             cx="56.098"
             style="fill:#4d76a1"
             id="XMLID_11_" />
        </g>
        <path
           id="path3763"
           d="m 53.979,80.702 4.403,0 c 0,0 1.33,-0.146 2.009,-0.878 0.625,-0.672 0.605,-1.934 0.605,-1.934 0,0 -0.086,-5.908 2.656,-6.778 2.703,-0.857 6.174,5.71 9.853,8.235 2.782,1.911 4.896,1.492 4.896,1.492 l 9.837,-0.137 c 0,0 5.146,-0.317 2.706,-4.363 -0.2,-0.331 -1.421,-2.993 -7.314,-8.463 -6.168,-5.725 -5.342,-4.799 2.088,-14.702 4.525,-6.031 6.334,-9.713 5.769,-11.29 -0.539,-1.502 -3.867,-1.105 -3.867,-1.105 l -11.076,0.069 c 0,0 -0.821,-0.112 -1.43,0.252 -0.595,0.357 -0.978,1.189 -0.978,1.189 0,0 -1.753,4.667 -4.091,8.636 -4.932,8.375 -6.904,8.817 -7.71,8.297 -1.875,-1.212 -1.407,-4.869 -1.407,-7.467 0,-8.116 1.231,-11.5 -2.397,-12.376 -1.204,-0.291 -2.09,-0.483 -5.169,-0.514 -3.952,-0.041 -7.297,0.012 -9.191,0.94 -1.26,0.617 -2.232,1.992 -1.64,2.071 0.732,0.098 2.39,0.447 3.269,1.644 1.135,1.544 1.095,5.012 1.095,5.012 0,0 0.652,9.554 -1.523,10.741 -1.493,0.814 -3.541,-0.848 -7.938,-8.446 -2.253,-3.892 -3.954,-8.194 -3.954,-8.194 0,0 -0.328,-0.804 -0.913,-1.234 -0.71,-0.521 -1.702,-0.687 -1.702,-0.687 L 20.34,40.781 c 0,0 -1.58,0.044 -2.16,0.731 -0.516,0.611 -0.041,1.875 -0.041,1.875 0,0 8.24,19.278 17.57,28.993 8.555,8.907 18.27,8.322 18.27,8.322 l 0,0 z"
           style="clip-rule:evenodd;fill:#ffffff;fill-rule:evenodd"
           inkscape:connector-curvature="0" />
      </g>
      <g
         id="g3765" />
      <g
         id="g3767" />
      <g
         id="g3769" />
      <g
         id="g3771" />
      <g
         id="g3773" />
      <g
         id="g3775" />
      <g
         id="g3777" />
      <g
         id="g3779" />
      <g
         id="g3781" />
      <g
         id="g3783" />
      <g
         id="g3785" />
      <g
         id="g3787" />
      <g
         id="g3789" />
      <g
         id="g3791" />
      <g
         id="g3793" />
    </g>
    <g
       id="g3865"
       transform="matrix(0.89129738,0,0,0.89129738,574.28571,389.50506)">
      <g
         id="g3823">
        <circle
           id="circle3825"
           r="56.098"
           cy="56.098"
           cx="56.098"
           style="fill:#3b5998" />
        <path
           id="path3827"
           d="m 70.201,58.294 -10.01,0 0,36.672 -15.166,0 0,-36.672 -7.213,0 0,-12.888 7.213,0 0,-8.34 c 0,-5.964 2.833,-15.303 15.301,-15.303 l 11.234,0.047 0,12.51 -8.151,0 c -1.337,0 -3.217,0.668 -3.217,3.513 l 0,7.585 11.334,0 -1.325,12.876 z"
           style="fill:#ffffff"
           inkscape:connector-curvature="0" />
      </g>
      <g
         id="g3829" />
      <g
         id="g3831" />
      <g
         id="g3833" />
      <g
         id="g3835" />
      <g
         id="g3837" />
      <g
         id="g3839" />
      <g
         id="g3841" />
      <g
         id="g3843" />
      <g
         id="g3845" />
      <g
         id="g3847" />
      <g
         id="g3849" />
      <g
         id="g3851" />
      <g
         id="g3853" />
      <g
         id="g3855" />
      <g
         id="g3857" />
    </g>
    <g
       id="g3926"
       transform="matrix(0.34326514,0,0,0.34326514,0,952.3622)">
      <g
         id="g3886">
        <path
           id="path3888"
           d="M 145.66,0 C 65.219,0 0,65.219 0,145.66 c 0,80.45 65.219,145.66 145.66,145.66 80.441,0 145.66,-65.21 145.66,-145.66 C 291.319,65.219 226.1,0 145.66,0 Z m 40.802,256.625 c -0.838,-11.398 -1.775,-25.518 -1.83,-31.235 -0.364,-4.388 -0.838,-15.549 -11.434,-22.677 42.068,-3.523 62.087,-26.774 63.526,-57.499 1.202,-17.497 -5.754,-32.883 -18.107,-45.3 0.628,-13.282 -0.401,-29.023 -1.256,-35.941 -9.486,-2.731 -31.608,8.949 -37.79,13.947 -13.037,-5.062 -44.945,-6.837 -64.336,0 C 101.488,68.252 85.839,62.28 77.309,63.946 69.434,81.398 74.496,97.894 76.034,99.86 c -10.142,9.268 -24.289,20.675 -20.447,44.572 6.163,35.04 30.816,53.94 70.508,58.564 -8.466,1.73 -9.896,8.048 -10.606,10.788 -26.656,10.997 -34.275,-6.791 -37.644,-11.425 -11.188,-13.847 -21.23,-9.832 -21.849,-9.614 -0.601,0.218 -1.056,1.092 -0.992,1.511 0.564,2.986 6.655,6.018 6.955,6.263 8.257,6.154 11.316,17.27 13.2,20.438 11.844,19.473 39.374,11.398 39.638,11.562 0.018,1.702 -0.191,16.032 -0.355,27.184 C 64.245,245.992 27.311,200.2 27.311,145.66 c 0,-65.365 52.984,-118.348 118.348,-118.348 65.364,0 118.349,52.983 118.349,118.348 0,51.008 -32.318,94.332 -77.546,110.965 z"
           style="fill:#2b414d"
           inkscape:connector-curvature="0" />
      </g>
      <g
         id="g3890" />
      <g
         id="g3892" />
      <g
         id="g3894" />
      <g
         id="g3896" />
      <g
         id="g3898" />
      <g
         id="g3900" />
      <g
         id="g3902" />
      <g
         id="g3904" />
      <g
         id="g3906" />
      <g
         id="g3908" />
      <g
         id="g3910" />
      <g
         id="g3912" />
      <g
         id="g3914" />
      <g
         id="g3916" />
      <g
         id="g3918" />
    </g>
  </g>
</svg>
