<?xml version="1.0" encoding="UTF-8" standalone="no"?>
<!-- Created with Inkscape (http://www.inkscape.org/) -->

<svg
   xmlns:dc="http://purl.org/dc/elements/1.1/"
   xmlns:cc="http://creativecommons.org/ns#"
   xmlns:rdf="http://www.w3.org/1999/02/22-rdf-syntax-ns#"
   xmlns:svg="http://www.w3.org/2000/svg"
   xmlns="http://www.w3.org/2000/svg"
   xmlns:sodipodi="http://sodipodi.sourceforge.net/DTD/sodipodi-0.dtd"
   xmlns:inkscape="http://www.inkscape.org/namespaces/inkscape"
   width="210mm"
   height="297mm"
   viewBox="0 0 744.09448819 1052.3622047"
   id="svg2"
   version="1.1"
   inkscape:version="0.91 r13725"
   sodipodi:docname="img.svg">
  <defs
     id="defs4" />
  <sodipodi:namedview
     id="base"
     pagecolor="#ffffff"
     bordercolor="#666666"
     borderopacity="1.0"
     inkscape:pageopacity="0.0"
     inkscape:pageshadow="2"
     inkscape:zoom="0.35"
     inkscape:cx="375"
     inkscape:cy="520"
     inkscape:document-units="px"
     inkscape:current-layer="layer1"
     showgrid="false"
     inkscape:window-width="1024"
     inkscape:window-height="715"
     inkscape:window-x="-8"
     inkscape:window-y="-8"
     inkscape:window-maximized="1" />
  <metadata
     id="metadata7">
    <rdf:RDF>
      <cc:Work
         rdf:about="">
        <dc:format>image/svg+xml</dc:format>
        <dc:type
           rdf:resource="http://purl.org/dc/dcmitype/StillImage" />
        <dc:title></dc:title>
      </cc:Work>
    </rdf:RDF>
  </metadata>
  <g
     inkscape:label="Layer 1"
     inkscape:groupmode="layer"
     id="layer1">
    <g
       id="g3380"
       transform="translate(18.187714,16.264207)">
      <g
         id="g3337">
        <g
           id="g3339">
          <circle
             r="56.098"
             cy="56.098"
             cx="56.098"
             style="fill:#4d76a1"
             id="XMLID_11_" />
        </g>
        <path
           id="path3342"
           d="m 53.979,80.702 4.403,0 c 0,0 1.33,-0.146 2.009,-0.878 0.625,-0.672 0.605,-1.934 0.605,-1.934 0,0 -0.086,-5.908 2.656,-6.778 2.703,-0.857 6.174,5.71 9.853,8.235 2.782,1.911 4.896,1.492 4.896,1.492 l 9.837,-0.137 c 0,0 5.146,-0.317 2.706,-4.363 -0.2,-0.331 -1.421,-2.993 -7.314,-8.463 -6.168,-5.725 -5.342,-4.799 2.088,-14.702 4.525,-6.031 6.334,-9.713 5.769,-11.29 -0.539,-1.502 -3.867,-1.105 -3.867,-1.105 l -11.076,0.069 c 0,0 -0.821,-0.112 -1.43,0.252 -0.595,0.357 -0.978,1.189 -0.978,1.189 0,0 -1.753,4.667 -4.091,8.636 -4.932,8.375 -6.904,8.817 -7.71,8.297 -1.875,-1.212 -1.407,-4.869 -1.407,-7.467 0,-8.116 1.231,-11.5 -2.397,-12.376 -1.204,-0.291 -2.09,-0.483 -5.169,-0.514 -3.952,-0.041 -7.297,0.012 -9.191,0.94 -1.26,0.617 -2.232,1.992 -1.64,2.071 0.732,0.098 2.39,0.447 3.269,1.644 1.135,1.544 1.095,5.012 1.095,5.012 0,0 0.652,9.554 -1.523,10.741 -1.493,0.814 -3.541,-0.848 -7.938,-8.446 -2.253,-3.892 -3.954,-8.194 -3.954,-8.194 0,0 -0.328,-0.804 -0.913,-1.234 -0.71,-0.521 -1.702,-0.687 -1.702,-0.687 L 20.34,40.781 c 0,0 -1.58,0.044 -2.16,0.731 -0.516,0.611 -0.041,1.875 -0.041,1.875 0,0 8.24,19.278 17.57,28.993 8.555,8.907 18.27,8.322 18.27,8.322 l 0,0 z"
           style="clip-rule:evenodd;fill:#ffffff;fill-rule:evenodd"
           inkscape:connector-curvature="0" />
      </g>
      <g
         id="g3344" />
      <g
         id="g3346" />
      <g
         id="g3348" />
      <g
         id="g3350" />
      <g
         id="g3352" />
      <g
         id="g3354" />
      <g
         id="g3356" />
      <g
         id="g3358" />
      <g
         id="g3360" />
      <g
         id="g3362" />
      <g
         id="g3364" />
      <g
         id="g3366" />
      <g
         id="g3368" />
      <g
         id="g3370" />
      <g
         id="g3372" />
    </g>
    <g
       id="g3444"
       transform="translate(152.47343,16.264207)">
      <g
         id="g3402">
        <circle
           id="circle3404"
           r="56.098"
           cy="56.098"
           cx="56.098"
           style="fill:#3b5998" />
        <path
           id="path3406"
           d="m 70.201,58.294 -10.01,0 0,36.672 -15.166,0 0,-36.672 -7.213,0 0,-12.888 7.213,0 0,-8.34 c 0,-5.964 2.833,-15.303 15.301,-15.303 l 11.234,0.047 0,12.51 -8.151,0 c -1.337,0 -3.217,0.668 -3.217,3.513 l 0,7.585 11.334,0 -1.325,12.876 z"
           style="fill:#ffffff"
           inkscape:connector-curvature="0" />
      </g>
      <g
         id="g3408" />
      <g
         id="g3410" />
      <g
         id="g3412" />
      <g
         id="g3414" />
      <g
         id="g3416" />
      <g
         id="g3418" />
      <g
         id="g3420" />
      <g
         id="g3422" />
      <g
         id="g3424" />
      <g
         id="g3426" />
      <g
         id="g3428" />
      <g
         id="g3430" />
      <g
         id="g3432" />
      <g
         id="g3434" />
      <g
         id="g3436" />
    </g>
    <g
       id="g3598"
       transform="translate(412.47342,16.265205)">
      <g
         id="g3545">
        <g
           id="g3547">
          <circle
             r="56.098"
             cy="56.097"
             cx="56.098"
             style="fill:#dc4e41"
             id="XMLID_30_-8" />
        </g>
        <g
           id="g3550">
          <path
             id="path3552"
             d="m 19.531,58.608 c -0.199,9.652 6.449,18.863 15.594,21.867 8.614,2.894 19.205,0.729 24.937,-6.648 4.185,-5.169 5.136,-12.06 4.683,-18.498 -7.377,-0.066 -14.754,-0.044 -22.12,-0.033 -0.012,2.628 0,5.246 0.011,7.874 4.417,0.122 8.835,0.066 13.252,0.155 -1.115,3.821 -3.655,7.377 -7.51,8.757 -7.443,3.28 -16.94,-1.005 -19.282,-8.813 -2.827,-7.477 1.801,-16.5 9.442,-18.675 4.738,-1.667 9.619,0.21 13.673,2.673 2.054,-1.922 3.976,-3.976 5.864,-6.052 C 53.469,37.361 47.55,34.998 41.465,35.517 29.526,35.659 19.078,46.681 19.531,58.608 Z"
             style="fill:#dc4e41"
             inkscape:connector-curvature="0" />
          <path
             id="path3554"
             d="m 79.102,48.668 c -0.022,2.198 -0.045,4.407 -0.056,6.604 -2.209,0.022 -4.406,0.033 -6.604,0.044 0,2.198 0,4.384 0,6.582 2.198,0.011 4.407,0.022 6.604,0.045 0.022,2.198 0.022,4.395 0.044,6.604 2.187,0 4.385,-0.011 6.582,0 0.012,-2.209 0.022,-4.406 0.045,-6.615 2.197,-0.011 4.406,-0.022 6.604,-0.033 0,-2.198 0,-4.384 0,-6.582 -2.197,-0.011 -4.406,-0.022 -6.604,-0.044 -0.012,-2.198 -0.033,-4.407 -0.045,-6.604 -2.197,-10e-4 -4.384,-10e-4 -6.57,-10e-4 z"
             style="fill:#dc4e41"
             inkscape:connector-curvature="0" />
          <g
             id="g3556">
            <path
               id="path3558"
               d="m 19.531,58.608 c -0.453,-11.927 9.994,-22.949 21.933,-23.092 6.085,-0.519 12.005,1.844 16.61,5.698 -1.889,2.077 -3.811,4.13 -5.864,6.052 -4.054,-2.463 -8.935,-4.34 -13.673,-2.673 -7.642,2.176 -12.27,11.199 -9.442,18.675 2.342,7.808 11.839,12.093 19.282,8.813 3.854,-1.38 6.395,-4.936 7.51,-8.757 -4.417,-0.088 -8.835,-0.033 -13.252,-0.155 -0.011,-2.628 -0.022,-5.246 -0.011,-7.874 7.366,-0.011 14.743,-0.033 22.12,0.033 0.453,6.439 -0.497,13.33 -4.683,18.498 -5.732,7.377 -16.322,9.542 -24.937,6.648 C 25.981,77.471 19.332,68.26 19.531,58.608 Z"
               style="fill:#ffffff"
               inkscape:connector-curvature="0" />
            <path
               id="path3560"
               d="m 79.102,48.668 c 2.187,0 4.373,0 6.57,0 0.012,2.198 0.033,4.407 0.045,6.604 2.197,0.022 4.406,0.033 6.604,0.044 0,2.198 0,4.384 0,6.582 -2.197,0.011 -4.406,0.022 -6.604,0.033 -0.022,2.209 -0.033,4.406 -0.045,6.615 -2.197,-0.011 -4.396,0 -6.582,0 -0.021,-2.209 -0.021,-4.406 -0.044,-6.604 -2.197,-0.023 -4.406,-0.033 -6.604,-0.045 0,-2.198 0,-4.384 0,-6.582 2.198,-0.011 4.396,-0.022 6.604,-0.044 0.011,-2.196 0.033,-4.405 0.056,-6.603 z"
               style="fill:#ffffff"
               inkscape:connector-curvature="0" />
          </g>
        </g>
      </g>
      <g
         id="g3562" />
      <g
         id="g3564" />
      <g
         id="g3566" />
      <g
         id="g3568" />
      <g
         id="g3570" />
      <g
         id="g3572" />
      <g
         id="g3574" />
      <g
         id="g3576" />
      <g
         id="g3578" />
      <g
         id="g3580" />
      <g
         id="g3582" />
      <g
         id="g3584" />
      <g
         id="g3586" />
      <g
         id="g3588" />
      <g
         id="g3590" />
    </g>
    <g
       id="g3665"
       transform="matrix(0.38512975,0,0,0.38512975,282.91144,16.264206)">
      <g
         id="g3625">
        <path
           id="path3627"
           d="M 145.66,0 C 65.219,0 0,65.219 0,145.66 c 0,80.45 65.219,145.66 145.66,145.66 80.441,0 145.66,-65.21 145.66,-145.66 C 291.319,65.219 226.1,0 145.66,0 Z m 40.802,256.625 c -0.838,-11.398 -1.775,-25.518 -1.83,-31.235 -0.364,-4.388 -0.838,-15.549 -11.434,-22.677 42.068,-3.523 62.087,-26.774 63.526,-57.499 1.202,-17.497 -5.754,-32.883 -18.107,-45.3 0.628,-13.282 -0.401,-29.023 -1.256,-35.941 -9.486,-2.731 -31.608,8.949 -37.79,13.947 -13.037,-5.062 -44.945,-6.837 -64.336,0 C 101.488,68.252 85.839,62.28 77.309,63.946 69.434,81.398 74.496,97.894 76.034,99.86 c -10.142,9.268 -24.289,20.675 -20.447,44.572 6.163,35.04 30.816,53.94 70.508,58.564 -8.466,1.73 -9.896,8.048 -10.606,10.788 -26.656,10.997 -34.275,-6.791 -37.644,-11.425 -11.188,-13.847 -21.23,-9.832 -21.849,-9.614 -0.601,0.218 -1.056,1.092 -0.992,1.511 0.564,2.986 6.655,6.018 6.955,6.263 8.257,6.154 11.316,17.27 13.2,20.438 11.844,19.473 39.374,11.398 39.638,11.562 0.018,1.702 -0.191,16.032 -0.355,27.184 C 64.245,245.992 27.311,200.2 27.311,145.66 c 0,-65.365 52.984,-118.348 118.348,-118.348 65.364,0 118.349,52.983 118.349,118.348 0,51.008 -32.318,94.332 -77.546,110.965 z"
           style="fill:#2b414d"
           inkscape:connector-curvature="0" />
      </g>
      <g
         id="g3629" />
      <g
         id="g3631" />
      <g
         id="g3633" />
      <g
         id="g3635" />
      <g
         id="g3637" />
      <g
         id="g3639" />
      <g
         id="g3641" />
      <g
         id="g3643" />
      <g
         id="g3645" />
      <g
         id="g3647" />
      <g
         id="g3649" />
      <g
         id="g3651" />
      <g
         id="g3653" />
      <g
         id="g3655" />
      <g
         id="g3657" />
    </g>
  </g>
</svg>
